#N canvas 335 232 945 446 10;
#X obj 242 265 dac~;
#X obj 264 15 notein;
#N canvas 316 444 450 300 magic 0;
#X obj 146 50 inlet;
#X obj 218 55 inlet;
#X obj 299 54 inlet;
#X obj 200 175 pack 0 0 0;
#X obj 122 149 pack 0 0;
#X obj 118 179 unpack 0 0;
#X obj 192 241 outlet;
#X connect 0 0 3 1;
#X connect 0 0 4 0;
#X connect 1 0 3 2;
#X connect 2 0 4 1;
#X connect 3 0 6 0;
#X connect 4 0 5 0;
#X connect 5 1 3 0;
#X restore 248 43 pd magic;
#X obj 243 74 route 1 2 3 4;
#X obj 239 220 hip~ 4;
#N canvas 570 47 622 261 osc 1;
#X obj 474 59 loadbang;
#X obj 296 57 r oscsenddood;
#X obj 46 109 s oscrecvdood;
#X obj 149 95 mrpeach/unpackOSC;
#X obj 328 96 print SENDING;
#X obj 157 135 print RECEIVING;
#X obj 54 57 mrpeach/udpreceive 8000;
#X msg 443 122 connect 192.168.1.121 9000;
#X obj 350 193 mrpeach/upsend 192.168.1.121 9000;
#X obj 361 163 mrpeach/udpsend 192.168.43.1 9000;
#X msg 440 101 connect 192.168.43.1 9000;
#X connect 0 0 10 0;
#X connect 0 0 7 0;
#X connect 1 0 4 0;
#X connect 1 0 8 0;
#X connect 1 0 9 0;
#X connect 3 0 5 0;
#X connect 6 0 2 0;
#X connect 7 0 8 0;
#X connect 10 0 9 0;
#X restore 487 61 pd osc;
#X obj 243 240 clip~ -1 1;
#N canvas 0 23 450 300 oscin 0;
#X obj 151 94 mrpeach/unpackOSC;
#X obj 159 134 print RECEIVING;
#X obj 56 55 mrpeach/udpreceive 9123;
#X obj 161 241 outlet;
#X obj 138 166 mrpeach/routeOSC /key;
#X connect 0 0 1 0;
#X connect 0 0 4 0;
#X connect 2 0 0 0;
#X connect 4 0 3 0;
#X restore 113 16 pd oscin;
#X obj 174 145 instrument 2;
#X obj 373 50 print NOET;
#X connect 1 0 2 0;
#X connect 1 1 2 1;
#X connect 1 2 2 2;
#X connect 2 0 3 0;
#X connect 3 1 8 0;
#X connect 4 0 6 0;
#X connect 6 0 0 0;
#X connect 6 0 0 1;
#X connect 7 0 3 0;
#X connect 8 0 4 0;
